<?xml version="1.0" standalone="no"?>
<!DOCTYPE svg PUBLIC "-//W3C//DTD SVG 20010904//EN"
 "http://www.w3.org/TR/2001/REC-SVG-20010904/DTD/svg10.dtd">
<svg version="1.0" xmlns="http://www.w3.org/2000/svg"
 width="1280.000000pt" height="929.000000pt" viewBox="0 0 1280.000000 929.000000"
 preserveAspectRatio="xMidYMid meet">
<g transform="translate(0.000000,929.000000) scale(0.100000,-0.100000)"
fill="#000000" stroke="none">
<path d="M10422 9267 c-25 -26 -29 -69 -8 -86 7 -6 44 -22 82 -35 333 -113
771 -335 1030 -521 192 -138 467 -408 564 -556 85 -128 363 -691 428 -868 62
-166 124 -400 146 -550 8 -56 21 -110 27 -118 19 -22 69 -12 91 18 16 22 18
31 8 70 -6 24 -22 100 -35 169 -32 168 -85 345 -152 515 -74 187 -346 728
-425 845 -111 164 -380 425 -602 583 -255 183 -617 367 -991 505 -60 22 -117
43 -125 47 -10 3 -25 -4 -38 -18z"/>
<path d="M2420 9217 c-573 -173 -996 -376 -1325 -636 -215 -171 -345 -301
-442 -446 -39 -58 -223 -374 -330 -565 -115 -207 -225 -488 -277 -710 -15 -63
-32 -126 -37 -139 -7 -18 -6 -28 7 -42 39 -44 57 -21 84 106 32 149 119 404
192 561 67 145 343 634 431 764 28 41 108 131 177 200 289 288 627 501 1076
678 168 66 419 151 492 167 38 8 59 39 41 61 -13 16 -39 17 -89 1z"/>
<path d="M5815 9139 c-1895 -82 -3341 -737 -4090 -1854 -332 -496 -507 -1054
-531 -1695 -15 -372 51 -679 217 -1010 132 -262 282 -470 514 -708 556 -573
1364 -1051 2420 -1432 1019 -367 2242 -597 3328 -627 154 -4 253 -10 261 -17
7 -6 109 -396 226 -866 117 -470 217 -863 221 -872 5 -9 22 -26 39 -38 27 -20
31 -20 59 -5 17 8 35 24 41 36 6 11 110 415 231 897 120 482 224 881 231 885
7 4 85 49 173 99 738 418 1714 1259 2046 1762 303 459 507 1303 468 1944 -68
1134 -761 2090 -1986 2740 -1035 550 -2427 823 -3868 761z m725 -159 c1350
-52 2507 -372 3405 -940 489 -309 880 -689 1144 -1109 203 -325 321 -633 391
-1028 31 -168 38 -541 16 -742 -44 -395 -133 -755 -261 -1057 -124 -291 -272
-493 -599 -819 -515 -513 -1147 -993 -1689 -1284 -54 -29 -104 -62 -111 -74
-7 -12 -93 -343 -191 -735 -98 -392 -182 -715 -187 -718 -5 -3 -11 -4 -14 -1
-3 2 -86 328 -185 723 -99 395 -185 726 -190 736 -16 29 -72 36 -354 42 -1896
42 -3944 664 -5171 1572 -629 465 -1024 999 -1150 1553 -63 279 -54 651 26
1044 112 557 404 1100 807 1503 435 434 943 744 1598 975 769 270 1729 397
2715 359z"/>
<path d="M10347 8813 c-4 -3 -7 -16 -7 -29 0 -18 19 -32 98 -74 261 -140 516
-332 722 -546 316 -328 452 -508 634 -841 204 -373 319 -689 374 -1027 19
-117 34 -143 67 -116 14 12 16 25 11 75 -29 260 -143 620 -291 914 -228 455
-378 667 -725 1025 -205 210 -401 369 -617 499 -178 107 -248 138 -266 120z"/>
<path d="M2412 8725 c-201 -82 -496 -259 -677 -404 -207 -166 -487 -437 -611
-591 -96 -119 -232 -318 -351 -514 -150 -246 -283 -568 -343 -829 -26 -110
-20 -142 26 -153 40 -10 62 20 85 117 66 279 191 577 346 828 190 307 348 518
512 681 252 251 497 449 721 585 102 61 331 175 392 195 62 19 86 71 50 103
-27 24 -57 21 -150 -18z"/>
<path d="M1366 3923 c-13 -32 116 -238 266 -425 201 -250 589 -591 893 -783
99 -63 428 -227 600 -300 270 -114 622 -203 877 -221 81 -6 95 -4 108 11 22
27 1 49 -51 53 -180 12 -469 71 -669 136 -260 84 -675 281 -875 414 -238 158
-551 424 -713 605 -149 166 -265 323 -355 480 -21 35 -34 47 -51 47 -13 0 -27
-7 -30 -17z"/>
</g>
</svg>
